<svg xmlns="http://www.w3.org/2000/svg" width="119" height="44" fill="none"><path fill="#295DFA" stroke="#295DFA" stroke-width=".211" d="M3.96 12.97v5.498l6.7 5.553-1.94 1.637-7.614-6.45v-8.325c-.17-2.792 2.256-1.657 3.49-.74l5.604 3.912c6.45 5.153 4.546 10.363 2.643 11.92l-8.46 7.297 1.693 5.287 9.622-8.988-1.692-1.798h5.182l-1.48 1.798 9.199 8.487 2.115-4.892-5.182-4.23c-7.507-5.498-4.864-10.785-2.643-12.583l8.354-6.556c2.537-2.284 2.96-.6 2.855.529v8.882l-7.931 6.768-1.692-1.904 6.556-5.71v-5.393l-6.767 5.182c-4.484 4.652 5.18 10.785 10.045 14.38L27.859 43l-11.21-10.468L4.173 43 1 32.532l9.66-8.4.14-.13c3.993-4.049-2.88-9.035-6.84-11.033Z"/><path fill="url(#a)" d="m10.728 23.889-2.115 1.903-5.921-5.075 2.115-1.692 5.921 4.864Z"/><path fill="url(#b)" d="m24.686 26.215-2.009-2.326 6.24-5.287 1.69 2.326-5.92 5.287Z"/><path fill="#295DFA" d="M49.786 23.48c0-.442-.06-.872-.179-1.29a2.864 2.864 0 0 0-.555-1.11 2.7 2.7 0 0 0-1.004-.806c-.418-.204-.925-.305-1.522-.305-1.051 0-1.876.304-2.473.914-.597.597-.991 1.463-1.182 2.597h6.915ZM42.8 26.705c.18 1.553.651 2.682 1.416 3.386.764.693 1.75 1.04 2.956 1.04.645 0 1.2-.078 1.666-.234a8.024 8.024 0 0 0 1.236-.52c.37-.19.705-.363 1.003-.519.31-.155.633-.233.968-.233.442 0 .776.162 1.003.484l1.612 1.989a8.361 8.361 0 0 1-1.863 1.612 9.956 9.956 0 0 1-2.042.968c-.693.227-1.392.382-2.096.465-.693.096-1.356.144-1.99.144a10.64 10.64 0 0 1-3.672-.627 8.634 8.634 0 0 1-2.992-1.9c-.848-.835-1.522-1.875-2.024-3.117-.49-1.242-.735-2.687-.735-4.335 0-1.242.21-2.419.627-3.53a8.885 8.885 0 0 1 1.828-2.92 8.825 8.825 0 0 1 2.884-1.989c1.135-.49 2.413-.734 3.834-.734 1.23 0 2.353.191 3.368.573a7.24 7.24 0 0 1 2.634 1.666c.74.729 1.314 1.625 1.72 2.688.418 1.05.627 2.245.627 3.583 0 .418-.018.758-.054 1.021-.036.263-.102.472-.197.627a.747.747 0 0 1-.394.323c-.155.06-.358.09-.61.09H42.8Zm19.87-8.277c.359-.334.73-.645 1.112-.931a6.267 6.267 0 0 1 1.218-.717 6.785 6.785 0 0 1 1.415-.466 7.35 7.35 0 0 1 1.666-.179c1.015 0 1.911.18 2.688.537a5.437 5.437 0 0 1 1.988 1.47c.538.62.944 1.367 1.218 2.239.275.86.412 1.797.412 2.813V35h-5.553V23.194c0-.908-.21-1.613-.627-2.114-.418-.514-1.034-.77-1.846-.77-.609 0-1.182.13-1.72.393-.525.251-1.039.598-1.54 1.04V35h-5.554V16.422h3.44c.692 0 1.146.31 1.361.931l.323 1.075Zm23.875-2.293c1.41 0 2.694.22 3.852.663 1.159.442 2.15 1.075 2.974 1.899.836.824 1.481 1.827 1.935 3.01.466 1.17.699 2.49.699 3.959 0 1.481-.233 2.819-.699 4.013-.454 1.183-1.099 2.192-1.935 3.028-.824.824-1.815 1.463-2.974 1.917-1.158.442-2.442.663-3.852.663-1.421 0-2.717-.221-3.887-.663a8.948 8.948 0 0 1-3.01-1.917c-.836-.836-1.487-1.846-1.953-3.028-.454-1.194-.68-2.532-.68-4.013 0-1.469.226-2.789.68-3.96.466-1.182 1.117-2.185 1.953-3.01a8.724 8.724 0 0 1 3.01-1.898c1.17-.442 2.466-.663 3.887-.663Zm0 15.031c1.278 0 2.216-.448 2.813-1.344.61-.907.914-2.28.914-4.12 0-1.84-.305-3.207-.914-4.103-.597-.896-1.535-1.343-2.813-1.343-1.313 0-2.275.447-2.884 1.343-.61.896-.914 2.264-.914 4.103 0 1.84.305 3.213.914 4.12.61.896 1.57 1.344 2.884 1.344Zm17.38-12.738a13.62 13.62 0 0 1 1.111-.931 6.257 6.257 0 0 1 1.218-.717 6.785 6.785 0 0 1 1.416-.466 7.346 7.346 0 0 1 1.666-.179c1.015 0 1.911.18 2.687.537a5.446 5.446 0 0 1 1.989 1.47c.537.62.943 1.367 1.218 2.239.275.86.412 1.797.412 2.813V35h-5.554V23.194c0-.908-.209-1.613-.627-2.114-.418-.514-1.033-.77-1.845-.77-.609 0-1.183.13-1.72.393a6.749 6.749 0 0 0-1.541 1.04V35h-5.553V16.422h3.439c.693 0 1.147.31 1.362.931l.322 1.075Z"/><defs><linearGradient id="a" x1="9.459" x2="3.855" y1="24.841" y2="19.871" gradientUnits="userSpaceOnUse"><stop stop-color="#012592"/><stop offset="1" stop-color="#3B69F1"/></linearGradient><linearGradient id="b" x1="29.55" x2="23.629" y1="19.659" y2="24.841" gradientUnits="userSpaceOnUse"><stop stop-color="#3B69F1"/><stop offset="1" stop-color="#012592"/></linearGradient></defs></svg>